<svg width="120" height="120" viewBox="0 0 120 120" fill="none" xmlns="http://www.w3.org/2000/svg">
<g clip-path="url(#clip0_102_129)">
<g clip-path="url(#clip1_102_129)">
<path d="M119.413 50.42C119.48 50.0613 119.48 49.6801 119.435 49.1869C119.345 48.2228 118.785 47.2364 117.754 47.057C109.324 45.4652 100.692 45.8015 92.0155 46.4741C91.9931 46.3844 91.9931 46.2947 91.9259 46.1826C87.9127 39.1428 84.7739 31.6322 80.7159 24.5923C78.048 19.9963 73.4071 11.3422 66.995 11.7458C65.8292 11.8354 64.6857 12.7771 64.7754 14.0326C65.3583 21.5881 75.806 43.5819 78.6309 47.6175C74.9765 47.8866 71.3444 48.0883 67.7348 48.0883H33.0065C36.5713 43.0663 39.8221 37.7976 42.8264 32.4169C45.0011 28.5158 50.7406 19.6824 47.3776 15.0863C46.6602 14.1223 45.4047 13.629 44.2837 14.324C43.6559 14.7276 41.4812 15.8486 41.0328 16.3642C38.1855 19.6824 35.9009 23.4041 33.6589 27.1482C33.4123 27.5069 33.1881 27.8656 32.9415 28.2243C30.8789 31.1389 19.8259 47.7296 19.6689 48.0883H2.8092C1.39675 48.0883 0.701734 49.1645 0.701734 50.2855C0.118818 50.7563 -0.19506 51.5186 0.141237 52.4602C4.78215 65.2619 10.6561 77.548 14.7141 90.5739C16.6647 96.8739 17.2027 102.613 23.7718 105.438C31.8877 108.913 43.434 107.927 52.0208 108.151C65.9211 108.555 79.8438 107.86 93.6993 106.761C94.5736 106.694 96.8605 105.281 97.2865 104.497C106.479 88.0405 110.716 69.4769 119.706 52.931C120.24 51.967 119.996 51.0478 119.413 50.42ZM20.1801 91.3362C19.9559 91.3362 19.7541 91.4259 19.5523 91.4707C18.5636 88.1078 17.5794 84.7448 16.4136 81.4267C14.3958 75.5751 11.9969 69.8804 9.62035 64.1634C11.9072 64.1634 14.1716 64.1634 16.436 64.1858C16.4136 64.4772 16.436 64.8135 16.5705 65.1723C18.0502 69.1406 18.9022 73.2434 19.8438 77.3687C20.9424 82.2562 23.1171 86.6505 24.5744 91.4035C23.1193 91.3833 21.6621 91.3586 20.1801 91.3362ZM28.9037 91.5178C29.0158 91.1367 29.0606 90.7331 28.9261 90.2623C27.6482 86.0474 25.72 82.1239 24.5766 77.8641C23.3435 73.2905 22.5813 68.6496 20.967 64.188C23.6798 64.188 26.3702 64.2104 29.0606 64.2104C28.8364 64.7485 28.814 65.3987 29.1503 66.0713C32.9617 73.9407 33.2307 82.7741 34.4189 91.2936C34.4414 91.4506 34.531 91.5627 34.5759 91.7196C32.6926 91.6501 30.7847 91.5627 28.9037 91.5178ZM38.8581 91.8743C38.9029 91.6725 38.9478 91.4707 38.9029 91.2241C37.625 82.032 37.1766 72.7277 33.1859 64.2082H43.0954C43.5887 68.7146 44.4182 73.1761 45.0235 77.6825C45.6961 82.4804 45.5616 87.3455 46.1894 92.1658C43.7456 92.0783 41.2996 91.964 38.8581 91.8743ZM50.6733 92.3451C50.6733 92.2779 50.6958 92.233 50.6733 92.1433C50.0456 87.3007 50.0456 82.458 49.5075 77.6153C49.0367 73.1089 48.0726 68.6698 47.5794 64.1858C50.2922 64.1634 53.005 64.1185 55.7178 64.0961C55.673 73.49 55.09 82.8615 55.9196 92.233C55.9196 92.3451 55.9868 92.4124 56.0093 92.5245C54.2157 92.4796 52.4445 92.4124 50.6733 92.3451ZM68.9904 64.0087C68.8558 73.2456 65.3583 92.3249 65.5825 92.7285C63.8338 92.7061 62.085 92.6837 60.3363 92.6388C60.3587 92.4819 60.4036 92.3474 60.4036 92.1456C59.574 82.7965 60.1569 73.4474 60.2018 64.0759C63.1388 64.0311 66.0758 63.9862 69.0128 63.919C69.0105 63.9638 68.9904 63.984 68.9904 64.0087ZM69.5038 92.7487C69.571 92.6366 69.6383 92.5245 69.6607 92.3675C71.3646 82.9288 73.3376 73.5797 73.4721 63.9392C73.4721 63.8943 73.4497 63.8719 73.4497 63.8495C76.2297 63.7822 78.9874 63.715 81.7674 63.6253C81.745 63.7598 81.7002 63.8719 81.7002 64.0064C81.7899 73.6021 75.8934 92.3451 76.1176 92.659C73.9227 92.7285 71.7009 92.7487 69.5038 92.7487ZM79.9088 92.5245C80.0882 92.2106 86.2761 73.5797 86.1864 63.9392C86.1864 63.7598 86.1191 63.6253 86.0743 63.4683C89.2355 63.3787 92.3743 63.2217 95.513 63.0872C94.8853 72.7053 90.8497 82.9288 87.8006 92.0312C85.1775 92.233 82.5319 92.4124 79.9088 92.5245ZM96.6991 91.0672C95.3539 91.2465 94.0087 91.4259 92.6859 91.5604C95.7798 82.4355 99.367 72.5708 99.9948 62.9975C99.9948 62.9527 99.9724 62.9303 99.9724 62.863C103.447 62.6837 106.9 62.5043 110.375 62.2577C106.207 72.0327 97.5958 90.9327 96.6991 91.0672Z" fill="white"/>
</g>
</g>
<defs>
<clipPath id="clip0_102_129">
<rect width="120" height="120" fill="white"/>
</clipPath>
<clipPath id="clip1_102_129">
<rect width="120" height="120" fill="white"/>
</clipPath>
</defs>
</svg>
